<?xml version="1.0" encoding="utf-8"?>
<!-- Generator: Adobe Illustrator 23.0.0, SVG Export Plug-In . SVG Version: 6.00 Build 0)  -->
<svg version="1.1" id="Layer_1" xmlns:svgjs="http://svgjs.com/svgjs"
	 xmlns="http://www.w3.org/2000/svg" xmlns:xlink="http://www.w3.org/1999/xlink" x="0px" y="0px" viewBox="0 0 1000 1000"
	 style="enable-background:new 0 0 1000 1000;" xml:space="preserve">
<style type="text/css">
	.st0{opacity:0.5;}
</style>
<g class="st0">
	<g>
		<g>
			<path d="M912.1,351.5c-3.9-29.2-4.4-79.6,22.7-96.5c0.5-0.3,0.8-0.8,1.3-1.1c22.2-7.1,37.6-17.1,25.5-30.5l-327.4-98.6
				l-530.1,73.7c0,0-60.7,8.7-55.3,103c2.9,51.3,19,76.5,33.1,89l-43.5,13.1c-12.1,13.4,3.3,23.4,25.5,30.5c0.4,0.4,0.8,0.8,1.3,1.2
				c27.1,16.9,26.6,67.3,22.7,96.5c-97.5,27.7-62.5,36.7-62.5,36.7l21.4,5.2c-15,13.6-30,39.4-27.2,88.2
				C25,756,74.9,762.5,74.9,762.5l346.9,112.8l523.6-126.8c0,0,35-9-62.5-36.7c-3.9-29.2-4.5-79.5,22.7-96.5
				c0.5-0.3,0.9-0.8,1.3-1.1c22.2-7.1,37.5-17.1,25.5-30.5l-22.8-6.9c15.2-9.2,38-33.1,41.6-95.2c2.5-42.7-8.7-67.8-21.6-82.5
				l45-10.9C974.6,388.2,1009.6,379.1,912.1,351.5z M474.2,350.3l88.1-18.1L859.8,271l44.3-9.1c-14.2,25.9-13.6,61.4-11.2,84.2
				c0.5,5.2,1.1,9.9,1.7,13.5L846,371.6l-375.6,93.4L474.2,350.3z M95.9,442l44.3,9.1L426,509.9l25,5.1l0,0l0,0l74.9,15.4l3.7,114.8
				l-386-96l-38.1-9.5c0.6-3.6,1.2-8.3,1.7-13.5C109.5,503.5,110.1,468,95.9,442z M78.7,296.9c-0.5-25.1,3.9-43.2,13-52.5
				c5.8-5.9,12.5-7.1,17.2-7.1c2.5,0,4.2,0.3,4.3,0.3l228.4,74.5l114,37.2l-3.7,115.6l-319.7-89.6l-16.9-4.7
				c-0.6-0.2-1.5-0.3-2.1-0.3C111.8,370.1,80.2,367.2,78.7,296.9z M422.6,825.2L86.1,730.8c-0.6-0.2-1.5-0.3-2.1-0.3
				c-1.3-0.1-33-3-34.5-73.3c-0.5-25.1,3.9-43.2,13-52.5c5.8-5.9,12.6-7.1,17.2-7.1c2.5,0,4.2,0.3,4.4,0.3c0,0,0,0,0,0l342.4,111.6
				L422.6,825.2z M863.7,706.4c0.5,5.2,1.1,9.9,1.7,13.5L441.2,825.3l3.7-114.8l90.7-18.6l13.4,3.2l50.2-16.3l231.4-47.5l44.4-9.1
				C860.7,648.1,861.3,683.6,863.7,706.4z M887,550.3c-0.8,0-1.5,0.1-2.3,0.4l-32,9l-304.6,85.4l-3.7-115.6l99.9-32.6l242-78.9
				c0,0,12.7-2.8,22,6.6c9,9.2,13.5,27.4,13,52.5C919.8,547.3,888.2,550.3,887,550.3z"/>
		</g>
	</g>
</g>
</svg>
